<svg xmlns="http://www.w3.org/2000/svg" viewBox="0 0 100 100"><path d="M-.25,0V100.2H100V0Zm74,77.17a15,15,0,0,1-6,1.09,12.2,12.2,0,0,1-7.34-2q-2.69-2-3.49-6.7l-1.44-8A30.83,30.83,0,0,0,53,52.9,5.16,5.16,0,0,0,48,50.14H42.82V68.58A15.52,15.52,0,0,0,43.26,73a2.76,2.76,0,0,0,1.64,1.84,13.41,13.41,0,0,0,3.93.65v1.6q-4.34-.24-12.11-.24-8.58,0-12.67.24v-1.6a13.68,13.68,0,0,0,3.89-.65A2.75,2.75,0,0,0,29.62,73a15.52,15.52,0,0,0,.44-4.41V28.8a15.52,15.52,0,0,0-.44-4.41,2.75,2.75,0,0,0-1.68-1.84,13.75,13.75,0,0,0-3.89-.64V20.3q4.1.24,12.19.24l8.9-.08c1.07-.05,2.3-.08,3.69-.08q11.07,0,16.64,3.61a11.6,11.6,0,0,1,5.58,10.35,14,14,0,0,1-4.17,10q-4.17,4.34-13.8,5.45,7.22.64,10.75,3.13A11.58,11.58,0,0,1,68.4,60.4l1.84,8.26a13.69,13.69,0,0,0,1.49,4.49,2.67,2.67,0,0,0,2.37,1.29A4,4,0,0,0,75.74,74a7,7,0,0,0,1.56-1.36l1.12,1A13.16,13.16,0,0,1,73.77,77.12Z"/><path d="M55.29,45q2.45-3.48,2.44-9.82,0-6.59-2.32-9.95t-7.62-3.36a6.72,6.72,0,0,0-3.17.56,3.06,3.06,0,0,0-1.4,2,17.26,17.26,0,0,0-.4,4.33V48.53h3.45Q52.84,48.53,55.29,45Z"/></svg>
