<svg version="1.1" viewBox="0 0 26.458 26.458" xmlns="http://www.w3.org/2000/svg">
 <path d="m0 13.245v-13.245l23.759 0.025285 1.3455 3.511c0.74004 1.9311 1.349 3.5466 1.3533 3.5902 0.0044 0.043524-0.6144 1.5798-1.3749 3.414l-1.3827 3.3349 1.3488 6.236c0.74186 3.4298 1.3405 6.2444 1.3303 6.2547-0.01029 0.01033-2.967-2.0802-6.5707-4.6455l-6.5521-4.6642-0.30392 0.21774c-0.83036 0.59492-12.86 9.1575-12.903 9.1842-0.033152 0.020594-0.049849-4.405-0.049849-13.214zm13.398-4.0413c2.4974-1.0974 4.5578-2.0102 4.5787-2.0285 0.033532-0.029417-9.3121-4.1686-9.4064-4.1662-0.020583 5.329e-4 -0.037418 1.8747-0.037418 4.1647v4.1637l0.16217-0.06929c0.089189-0.03811 2.2055-0.96712 4.7029-2.0645z" fill="#008080" />
</svg>
